<svg width="36" height="36" viewBox="0 0 36 36" fill="none" xmlns="http://www.w3.org/2000/svg">
<path d="M30.25 18H18V5.75C18 4.7 17.3 4 16.25 4C7.5 4 0.5 11 0.5 19.75C0.5 28.5 7.5 35.5 16.25 35.5C25 35.5 32 28.5 32 19.75C32 18.7 31.3 18 30.25 18ZM18 31.825C11.35 32.875 5.05 28.15 4.175 21.5C3.125 14.85 7.85 8.55 14.5 7.675V19.75C14.5 20.8 15.2 21.5 16.25 21.5H28.325C27.625 26.925 23.425 31.125 18 31.825ZM23.25 0.5C22.2 0.5 21.5 1.2 21.5 2.25V12.75C21.5 13.8 22.2 14.5 23.25 14.5H33.75C34.8 14.5 35.5 13.8 35.5 12.75C35.5 5.925 30.075 0.5 23.25 0.5ZM25 11V4.175C28.5 4.875 31.125 7.5 31.825 11H25Z" fill="black"/>
</svg>
