<svg width="28" height="36" viewBox="0 0 28 36" fill="none" xmlns="http://www.w3.org/2000/svg">
<path d="M28 18C28 17.5359 27.8156 17.0908 27.4874 16.7626C27.1593 16.4344 26.7141 16.25 26.25 16.25H12.9675L16.9925 12.2425C17.1557 12.0793 17.2851 11.8856 17.3734 11.6724C17.4617 11.4592 17.5072 11.2308 17.5072 11C17.5072 10.7692 17.4617 10.5408 17.3734 10.3276C17.2851 10.1144 17.1557 9.92067 16.9925 9.7575C16.8293 9.59433 16.6356 9.4649 16.4224 9.3766C16.2092 9.28829 15.9808 9.24284 15.75 9.24284C15.5192 9.24284 15.2908 9.28829 15.0776 9.3766C14.8644 9.4649 14.6707 9.59433 14.5075 9.7575L7.5075 16.7575C7.34818 16.9239 7.22329 17.1202 7.14 17.335C6.96497 17.7611 6.96497 18.2389 7.14 18.665C7.22329 18.8798 7.34818 19.0761 7.5075 19.2425L14.5075 26.2425C14.6702 26.4065 14.8637 26.5367 15.077 26.6256C15.2902 26.7144 15.519 26.7601 15.75 26.7601C15.981 26.7601 16.2098 26.7144 16.423 26.6256C16.6363 26.5367 16.8298 26.4065 16.9925 26.2425C17.1565 26.0798 17.2867 25.8863 17.3756 25.673C17.4644 25.4598 17.5101 25.231 17.5101 25C17.5101 24.769 17.4644 24.5402 17.3756 24.327C17.2867 24.1137 17.1565 23.9202 16.9925 23.7575L12.9675 19.75H26.25C26.7141 19.75 27.1593 19.5656 27.4874 19.2374C27.8156 18.9092 28 18.4641 28 18ZM22.75 0.5H5.25C3.85761 0.5 2.52226 1.05312 1.53769 2.03769C0.553124 3.02226 0 4.35761 0 5.75V30.25C0 31.6424 0.553124 32.9777 1.53769 33.9623C2.52226 34.9469 3.85761 35.5 5.25 35.5H22.75C24.1424 35.5 25.4777 34.9469 26.4623 33.9623C27.4469 32.9777 28 31.6424 28 30.25V25C28 24.5359 27.8156 24.0908 27.4874 23.7626C27.1593 23.4344 26.7141 23.25 26.25 23.25C25.7859 23.25 25.3407 23.4344 25.0126 23.7626C24.6844 24.0908 24.5 24.5359 24.5 25V30.25C24.5 30.7141 24.3156 31.1593 23.9874 31.4874C23.6593 31.8156 23.2141 32 22.75 32H5.25C4.78587 32 4.34075 31.8156 4.01256 31.4874C3.68437 31.1593 3.5 30.7141 3.5 30.25V5.75C3.5 5.28587 3.68437 4.84075 4.01256 4.51256C4.34075 4.18437 4.78587 4 5.25 4H22.75C23.2141 4 23.6593 4.18437 23.9874 4.51256C24.3156 4.84075 24.5 5.28587 24.5 5.75V11C24.5 11.4641 24.6844 11.9092 25.0126 12.2374C25.3407 12.5656 25.7859 12.75 26.25 12.75C26.7141 12.75 27.1593 12.5656 27.4874 12.2374C27.8156 11.9092 28 11.4641 28 11V5.75C28 4.35761 27.4469 3.02226 26.4623 2.03769C25.4777 1.05312 24.1424 0.5 22.75 0.5Z" fill="black"/>
</svg>
