<svg width="524" height="77" viewBox="0 0 524 77" fill="none" xmlns="http://www.w3.org/2000/svg">
<path d="M28.28 7.32C32.248 6.80799 36.248 6.936 40.28 7.704C41.24 7.896 43.96 8.92 48.44 10.776C52.216 12.376 54.36 12.472 54.872 11.064C54.936 10.808 55 10.52 55.064 10.2C55.064 9.816 55.064 9.46399 55.064 9.144C55.192 8.31199 55.64 7.86399 56.408 7.8C57.176 7.928 57.624 8.376 57.752 9.144V29.208C53.336 29.208 50.104 27.224 48.056 23.256C47.608 22.36 47.032 20.984 46.328 19.128C44.792 15.288 43.288 12.76 41.816 11.544C40.344 10.456 38.552 9.88 36.44 9.816C35.8 9.816 35.256 9.848 34.808 9.912C30.008 10.36 26.04 13.816 22.904 20.28C19.192 28.024 17.848 37.08 18.872 47.448C19.64 55.64 22.008 62.392 25.976 67.704C28.664 71.352 31.448 73.176 34.328 73.176C37.528 73.176 39.448 70.904 40.088 66.36C40.344 64.76 40.472 62.84 40.472 60.6V54.648C40.472 49.72 40.056 46.712 39.224 45.624C38.264 44.408 36.152 43.8 32.888 43.8C32.12 43.672 31.672 43.224 31.544 42.456C31.672 41.688 32.12 41.24 32.888 41.112H65.24C66.072 41.24 66.52 41.688 66.584 42.456C66.52 43.288 66.072 43.736 65.24 43.8C61.784 43.8 59.64 44.472 58.808 45.816C58.104 47.032 57.752 50.008 57.752 54.744V73.656C57.624 74.488 57.176 74.936 56.408 75C55.576 74.872 55.128 74.424 55.064 73.656C55.064 72.952 55.032 72.344 54.968 71.832C54.712 70.04 53.048 69.72 49.976 70.872C49.336 71.128 48.408 71.576 47.192 72.216C45.848 72.92 44.824 73.432 44.12 73.752C40.856 75.032 37.496 75.736 34.04 75.864C25.912 76.184 18.68 73.624 12.344 68.184C5.368 62.104 1.592 54.2 1.016 44.472C1.016 44.28 1.016 44.12 1.016 43.992C0.44 31.064 4.088 21.208 11.96 14.424C16.568 10.52 22.008 8.152 28.28 7.32ZM94.5808 25.656V25.56C95.0288 25.432 95.4768 25.464 95.9248 25.656C96.1168 25.784 96.2768 25.944 96.4048 26.136C96.5328 26.392 96.5648 26.776 96.5008 27.288V35.16C97.0128 34.136 97.5568 33.24 98.1328 32.472C99.7968 30.232 101.749 28.504 103.989 27.288C106.357 26.072 108.981 25.464 111.861 25.464H118.677C118.997 25.464 119.189 25.496 119.253 25.56C119.829 25.816 120.117 26.232 120.117 26.808V42.552C117.813 42.552 115.413 41.016 112.917 37.944C110.549 34.936 109.141 33.24 108.693 32.856C106.965 31.192 105.045 30.808 102.933 31.704C102.357 31.896 101.845 32.216 101.397 32.664C101.013 33.112 100.661 33.56 100.341 34.008C98.0368 37.336 96.7568 41.464 96.5008 46.392V61.368C96.5648 66.296 96.9808 69.336 97.7488 70.488C98.6448 71.704 100.757 72.312 104.085 72.312C104.917 72.44 105.365 72.888 105.429 73.656C105.301 74.488 104.853 74.936 104.085 75H71.7328C70.9008 74.872 70.4528 74.424 70.3888 73.656C70.5168 72.824 70.9648 72.376 71.7328 72.312C75.1888 72.312 77.3328 71.64 78.1648 70.296C78.8688 69.08 79.2208 66.136 79.2208 61.464V47.928C79.2208 44.92 78.1968 42.744 76.1488 41.4C74.8048 40.632 73.5568 40.536 72.4048 41.112C71.6368 41.496 71.0288 41.336 70.5808 40.632C70.2608 39.864 70.4208 39.256 71.0608 38.808L94.5808 25.656ZM150.179 24.888C153.699 24.952 156.739 25.496 159.299 26.52C162.051 27.736 164.355 29.432 166.211 31.608C170.051 36.216 171.971 42.456 171.971 50.328C171.907 51.096 171.459 51.544 170.627 51.672H142.307C143.139 56.152 144.771 59.736 147.203 62.424C149.507 64.984 152.643 66.456 156.611 66.84C160.835 67.16 164.099 65.944 166.403 63.192C166.659 62.872 166.851 62.648 166.979 62.52C167.171 62.456 167.363 62.424 167.555 62.424C168.387 62.552 168.835 63 168.899 63.768C168.835 64.088 168.611 64.568 168.227 65.208C163.491 72.12 157.187 75.576 149.315 75.576C144.835 75.576 140.579 74.392 136.547 72.024C130.275 68.44 126.499 62.872 125.219 55.32C124.323 49.752 124.995 44.312 127.235 39C129.795 33.24 133.827 29.144 139.331 26.712C142.595 25.496 146.211 24.888 150.179 24.888ZM149.315 27.768C144.835 27.768 142.307 31.96 141.731 40.344C141.667 41.752 141.635 43.192 141.635 44.664C141.699 46.2 141.795 47.64 141.923 48.984H152.195C155.203 48.856 156.739 47.224 156.803 44.088C156.675 33.912 154.499 28.472 150.275 27.768C149.955 27.768 149.635 27.768 149.315 27.768ZM205.773 24.888C209.293 24.952 212.333 25.496 214.893 26.52C217.645 27.736 219.949 29.432 221.805 31.608C225.645 36.216 227.565 42.456 227.565 50.328C227.501 51.096 227.053 51.544 226.221 51.672H197.901C198.733 56.152 200.365 59.736 202.797 62.424C205.101 64.984 208.237 66.456 212.205 66.84C216.429 67.16 219.693 65.944 221.997 63.192C222.253 62.872 222.445 62.648 222.573 62.52C222.765 62.456 222.957 62.424 223.149 62.424C223.981 62.552 224.429 63 224.493 63.768C224.429 64.088 224.205 64.568 223.821 65.208C219.085 72.12 212.781 75.576 204.909 75.576C200.429 75.576 196.173 74.392 192.141 72.024C185.869 68.44 182.093 62.872 180.813 55.32C179.917 49.752 180.589 44.312 182.829 39C185.389 33.24 189.421 29.144 194.925 26.712C198.189 25.496 201.805 24.888 205.773 24.888ZM204.909 27.768C200.429 27.768 197.901 31.96 197.325 40.344C197.261 41.752 197.229 43.192 197.229 44.664C197.293 46.2 197.389 47.64 197.517 48.984H207.789C210.797 48.856 212.333 47.224 212.397 44.088C212.269 33.912 210.093 28.472 205.869 27.768C205.549 27.768 205.229 27.768 204.909 27.768ZM255.168 25.752C255.616 25.56 255.936 25.464 256.128 25.464C256.64 25.528 257.024 25.752 257.28 26.136C257.408 26.392 257.44 26.776 257.376 27.288V33.048C261.856 28.056 267.008 25.528 272.832 25.464C278.08 25.464 282.24 27.224 285.312 30.744C287.616 33.56 288.8 37.144 288.864 41.496V61.368C288.864 66.296 289.216 69.304 289.92 70.392C290.88 71.672 293.056 72.312 296.448 72.312C297.216 72.44 297.664 72.888 297.792 73.656C297.664 74.488 297.216 74.936 296.448 75H267.552C266.784 74.872 266.336 74.424 266.208 73.656C266.336 72.824 266.784 72.376 267.552 72.312C269.28 72.312 270.4 71.384 270.912 69.528C271.36 67.864 271.584 65.176 271.584 61.464V41.496C271.584 37.208 270.176 34.36 267.36 32.952C264.672 31.608 262.048 32.12 259.488 34.488C258.72 35.192 258.016 36.024 257.376 36.984V61.368C257.44 67.96 258.592 71.576 260.832 72.216C261.216 72.28 261.6 72.312 261.984 72.312C262.816 72.44 263.264 72.888 263.328 73.656C263.264 74.488 262.816 74.936 261.984 75H232.608C231.776 74.872 231.328 74.424 231.264 73.656C231.392 72.824 231.84 72.376 232.608 72.312C236.064 72.312 238.208 71.64 239.04 70.296C239.744 69.08 240.096 66.136 240.096 61.464V47.928C240.096 44.92 239.072 42.744 237.024 41.4C235.68 40.632 234.432 40.536 233.28 41.112C232.512 41.496 231.904 41.336 231.456 40.632C231.136 39.864 231.296 39.256 231.936 38.808L255.168 25.752ZM290.358 25.464H320.886C321.718 25.528 322.166 25.976 322.23 26.808C322.166 27.576 321.718 28.024 320.886 28.152C318.262 28.152 316.982 29.24 317.046 31.416C317.046 33.144 317.686 35.576 318.966 38.712L324.438 52.152L328.182 42.648C329.782 38.808 329.91 35.576 328.566 32.952C328.438 32.696 328.182 32.28 327.798 31.704C326.518 29.4 325.878 27.32 325.878 25.464H351.606C352.438 25.528 352.886 25.976 352.95 26.808C352.822 27.576 352.374 28.024 351.606 28.152C348.982 28.152 347.67 29.24 347.67 31.416C347.734 33.144 348.406 35.576 349.686 38.712L355.158 52.152L358.902 42.648C360.502 38.808 360.63 35.576 359.286 32.952C359.094 32.696 358.838 32.28 358.518 31.704C357.238 29.4 356.598 27.32 356.598 25.464H373.206C374.038 25.528 374.486 25.976 374.55 26.808C374.486 27.576 374.038 28.024 373.206 28.152H372.534C369.462 28.216 366.134 32.536 362.55 41.112L349.302 73.752C348.854 74.52 348.182 74.936 347.286 75C346.326 74.936 345.654 74.488 345.27 73.656L331.926 40.824L318.582 73.752C318.134 74.52 317.462 74.936 316.566 75C315.67 74.936 315.03 74.488 314.646 73.656L301.206 40.824L298.71 34.776C297.302 31.448 295.734 29.432 294.006 28.728C292.982 28.344 291.766 28.152 290.358 28.152C289.526 28.024 289.078 27.576 289.014 26.808C289.142 25.976 289.59 25.528 290.358 25.464ZM387.186 1.752C389.49 0.983997 391.89 1.016 394.386 1.848C397.522 3.128 399.538 5.4 400.434 8.664C400.626 9.496 400.722 10.328 400.722 11.16C400.722 14.808 399.186 17.624 396.114 19.608C394.45 20.696 392.626 21.24 390.642 21.24C386.994 21.24 384.178 19.704 382.194 16.632C381.17 14.968 380.626 13.144 380.562 11.16C380.562 7.512 382.098 4.696 385.17 2.712C385.874 2.328 386.546 2.008 387.186 1.752ZM398.706 25.656C399.09 25.464 399.474 25.432 399.858 25.56C400.114 25.752 400.338 25.944 400.53 26.136C400.658 26.392 400.69 26.776 400.626 27.288V61.368C400.69 66.296 401.106 69.336 401.874 70.488C402.77 71.704 404.882 72.312 408.21 72.312C409.042 72.44 409.49 72.888 409.554 73.656C409.426 74.488 408.978 74.936 408.21 75H375.858C375.026 74.872 374.578 74.424 374.514 73.656C374.642 72.824 375.09 72.376 375.858 72.312C379.314 72.312 381.458 71.64 382.29 70.296C382.994 69.08 383.346 66.136 383.346 61.464V47.928C383.346 44.92 382.322 42.744 380.274 41.4C378.93 40.632 377.682 40.536 376.53 41.112C375.762 41.496 375.154 41.336 374.706 40.632C374.386 39.864 374.546 39.256 375.186 38.808L398.706 25.656ZM426.021 26.712C430.565 24.92 435.877 24.504 441.957 25.464C447.077 26.296 451.173 27.544 454.245 29.208C455.077 29.784 455.525 30.36 455.589 30.936V46.296C452.901 46.296 450.501 44.216 448.389 40.056C448.005 39.352 447.493 38.232 446.853 36.696C444.869 32.344 443.141 29.656 441.669 28.632C440.133 27.608 438.405 27.48 436.485 28.248C433.477 29.464 431.173 32.376 429.573 36.984C428.741 39.544 428.325 42.104 428.325 44.664C428.517 52.536 430.373 58.456 433.893 62.424C436.197 64.984 439.333 66.456 443.301 66.84C447.525 67.224 450.789 66.008 453.093 63.192C453.477 62.744 453.861 62.488 454.245 62.424C455.077 62.552 455.525 63 455.589 63.768C455.525 64.088 455.301 64.568 454.917 65.208C450.181 72.12 443.877 75.576 436.005 75.576C431.525 75.512 427.269 74.328 423.237 72.024C416.965 68.44 413.189 62.872 411.909 55.32C411.013 49.752 411.685 44.312 413.925 39C416.485 33.24 420.517 29.144 426.021 26.712ZM480.694 5.112C481.078 4.92 481.494 4.92 481.942 5.112C482.198 5.304 482.39 5.496 482.518 5.68799C482.646 5.94399 482.678 6.296 482.614 6.744V33.336C487.158 28.152 492.374 25.528 498.262 25.464C503.574 25.464 507.734 27.224 510.742 30.744C513.11 33.56 514.326 37.144 514.39 41.496V61.368C514.39 66.296 514.742 69.304 515.446 70.392C516.406 71.672 518.582 72.312 521.974 72.312C522.742 72.44 523.19 72.888 523.318 73.656C523.19 74.488 522.742 74.936 521.974 75H493.078C492.31 74.872 491.862 74.424 491.734 73.656C491.862 72.824 492.31 72.376 493.078 72.312C494.806 72.312 495.926 71.384 496.438 69.528C496.886 67.864 497.11 65.176 497.11 61.464V41.496C497.11 37.208 495.702 34.36 492.886 32.952C490.198 31.608 487.542 32.152 484.918 34.584C484.086 35.416 483.318 36.376 482.614 37.464V61.368C482.678 68.024 483.862 71.64 486.166 72.216C486.55 72.28 486.902 72.312 487.222 72.312C488.054 72.44 488.502 72.888 488.566 73.656C488.502 74.488 488.054 74.936 487.222 75H457.846C457.014 74.872 456.566 74.424 456.502 73.656C456.63 72.824 457.078 72.376 457.846 72.312C461.302 72.312 463.446 71.64 464.278 70.296C464.982 69.08 465.334 66.136 465.334 61.464V27.384C465.334 24.376 464.31 22.232 462.262 20.952C460.918 20.12 459.67 20.024 458.518 20.664C457.75 20.984 457.142 20.824 456.694 20.184C456.374 19.416 456.534 18.808 457.174 18.36L480.694 5.112Z" fill="#487349"/>
</svg>
