<svg width="32" height="36" viewBox="0 0 32 36" fill="none" xmlns="http://www.w3.org/2000/svg">
<path d="M29.9999 10.9999L19.4999 1.79489C18.5374 0.933968 17.2913 0.458008 15.9999 0.458008C14.7085 0.458008 13.4625 0.933968 12.4999 1.79489L1.99992 10.9999C1.44407 11.497 1.0005 12.1069 0.698748 12.7888C0.396998 13.4708 0.243994 14.2092 0.249922 14.9549V30.2499C0.249922 31.6423 0.803045 32.9776 1.78761 33.9622C2.77218 34.9468 4.10754 35.4999 5.49992 35.4999H26.4999C27.8923 35.4999 29.2277 34.9468 30.2122 33.9622C31.1968 32.9776 31.7499 31.6423 31.7499 30.2499V14.9374C31.7534 14.1946 31.5992 13.4596 31.2975 12.7808C30.9958 12.1021 30.5536 11.4951 29.9999 10.9999ZM19.4999 31.9999H12.4999V23.2499C12.4999 22.7858 12.6843 22.3406 13.0125 22.0125C13.3407 21.6843 13.7858 21.4999 14.2499 21.4999H17.7499C18.2141 21.4999 18.6592 21.6843 18.9874 22.0125C19.3155 22.3406 19.4999 22.7858 19.4999 23.2499V31.9999ZM28.2499 30.2499C28.2499 30.714 28.0655 31.1591 27.7374 31.4873C27.4092 31.8155 26.9641 31.9999 26.4999 31.9999H22.9999V23.2499C22.9999 21.8575 22.4468 20.5221 21.4622 19.5376C20.4777 18.553 19.1423 17.9999 17.7499 17.9999H14.2499C12.8575 17.9999 11.5222 18.553 10.5376 19.5376C9.55304 20.5221 8.99992 21.8575 8.99992 23.2499V31.9999H5.49992C5.03579 31.9999 4.59067 31.8155 4.26249 31.4873C3.9343 31.1591 3.74992 30.714 3.74992 30.2499V14.9374C3.75024 14.6889 3.80346 14.4434 3.90605 14.2171C4.00864 13.9907 4.15825 13.7889 4.34492 13.6249L14.8449 4.43739C15.1643 4.15683 15.5748 4.0021 15.9999 4.0021C16.425 4.0021 16.8356 4.15683 17.1549 4.43739L27.6549 13.6249C27.8416 13.7889 27.9912 13.9907 28.0938 14.2171C28.1964 14.4434 28.2496 14.6889 28.2499 14.9374V30.2499Z" fill="black"/>
</svg>
