<svg width="36" height="36" viewBox="0 0 36 36" fill="none" xmlns="http://www.w3.org/2000/svg">
<path d="M31.44 8.61339C29.6568 7.63154 27.5773 7.42093 25.6475 8.02672C25.5536 5.97058 24.7077 4.03122 23.2855 2.61088C21.8632 1.19053 19.9737 0.398193 18.0088 0.398193C16.0438 0.398193 14.1543 1.19053 12.7321 2.61088C11.3098 4.03122 10.464 5.97058 10.37 8.02672C8.44552 7.41954 6.37192 7.60987 4.57752 8.55839C3.25609 9.28601 2.16683 10.4029 1.44408 11.7713C0.721321 13.1397 0.396676 14.6999 0.510176 16.2593C0.623676 17.8187 1.17036 19.3092 2.0828 20.547C2.99525 21.7848 4.23356 22.7157 5.64502 23.2251C4.7441 24.568 4.2557 26.167 4.24502 27.8084C4.2528 28.2693 4.29375 28.7289 4.36752 29.1834C4.66223 31.0452 5.57905 32.7367 6.95427 33.9557C8.32949 35.1748 10.0736 35.8421 11.875 35.8384C12.2479 35.8652 12.6221 35.8652 12.995 35.8384C14.9953 35.5083 16.7923 34.3695 18 32.6667C19.2203 34.342 21.0156 35.4534 23.005 35.7651C23.3779 35.7918 23.7521 35.7918 24.125 35.7651C25.5218 35.7634 26.8913 35.36 28.0843 34.599C29.2773 33.8381 30.248 32.7486 30.8907 31.4494C31.5333 30.1502 31.8232 28.6911 31.7287 27.2312C31.6343 25.7713 31.1591 24.3665 30.355 23.1701C31.7734 22.6695 33.0199 21.7431 33.9394 20.506C34.859 19.2689 35.4109 17.7758 35.5266 16.2126C35.6422 14.6493 35.3165 13.085 34.5898 11.7142C33.8632 10.3435 32.7678 9.22686 31.44 8.50339V8.61339ZM15.095 5.05672C15.8768 4.27234 16.9175 3.83447 18 3.83447C19.0825 3.83447 20.1232 4.27234 20.905 5.05672C21.5019 5.68296 21.9072 6.48126 22.0693 7.34979C22.2314 8.21833 22.1428 9.11776 21.815 9.93339L21.36 11.0151L20.205 12.0784C19.4949 11.823 18.7507 11.6869 18 11.6751C17.0298 11.676 16.0703 11.8883 15.1825 12.2984L14.2025 9.93339C13.8629 9.12137 13.7664 8.22052 13.9257 7.34982C14.0851 6.47913 14.4928 5.67956 15.095 5.05672ZM4.42002 17.5967C4.02935 16.6961 3.94372 15.6828 4.17728 14.7243C4.41084 13.7658 4.94961 12.9195 5.70454 12.3253C6.45946 11.7311 7.38534 11.4245 8.32912 11.4563C9.2729 11.4881 10.1781 11.8563 10.895 12.5001L11.7525 13.2884L12.365 14.7551C11.4884 15.9839 11.01 17.4743 11 19.0084C10.9793 19.283 10.9793 19.5588 11 19.8334H10.0375L8.56752 19.9801C7.72673 20.073 6.8789 19.8945 6.13763 19.4686C5.39636 19.0426 4.79706 18.3895 4.42002 17.5967ZM15.97 28.7434C15.7593 29.7221 15.2332 30.5948 14.4801 31.2146C13.727 31.8344 12.7931 32.1634 11.8356 32.1462C10.878 32.129 9.95541 31.7666 9.22309 31.1201C8.49078 30.4736 7.99351 29.5824 7.81502 28.5967C7.79824 28.3404 7.79824 28.0831 7.81502 27.8267C7.82136 27.0815 8.01368 26.3511 8.37286 25.7078C8.73204 25.0646 9.2456 24.531 9.86252 24.1601L10.755 23.5001L12.3475 23.3167C13.3512 24.7796 14.8338 25.8041 16.5125 26.1951L15.97 28.7434ZM18 22.6751C17.3078 22.6751 16.6311 22.46 16.0555 22.0571C15.48 21.6542 15.0314 21.0816 14.7664 20.4116C14.5015 19.7416 14.4322 19.0043 14.5673 18.2931C14.7023 17.5818 15.0357 16.9285 15.5251 16.4157C16.0146 15.9029 16.6383 15.5537 17.3172 15.4122C17.9961 15.2707 18.6999 15.3433 19.3394 15.6208C19.979 15.8983 20.5256 16.3683 20.9102 16.9713C21.2948 17.5743 21.5 18.2832 21.5 19.0084C21.5 19.9808 21.1313 20.9135 20.4749 21.6011C19.8185 22.2887 18.9283 22.6751 18 22.6751ZM28.185 28.5784C28.0045 29.697 27.4118 30.6966 26.5345 31.3618C25.6573 32.0271 24.5658 32.3048 23.495 32.1351C22.6513 32.0105 21.864 31.619 21.2385 31.0128C20.6131 30.4067 20.1792 29.6149 19.995 28.7434L19.75 27.6434L20.1175 25.9567C21.7319 25.4059 23.1002 24.2592 23.9675 22.7301L24.8425 23.2801H25L26.155 23.9951C26.9054 24.444 27.504 25.1264 27.8677 25.9476C28.2314 26.7688 28.3423 27.6882 28.185 28.5784ZM31.58 17.5784C31.2358 18.3071 30.7049 18.9211 30.0466 19.3517C29.3883 19.7824 28.6286 20.0126 27.8525 20.0167H27.4325L26.3125 19.8334L25 19.0817C24.9976 17.2992 24.3755 15.5786 23.25 14.2417L24.0025 13.5634L25.105 12.5001C25.824 11.8304 26.7429 11.4435 27.7042 11.4054C28.6656 11.3674 29.6097 11.6807 30.3748 12.2916C31.1399 12.9025 31.6786 13.7731 31.8984 14.7543C32.1183 15.7355 32.0057 16.7662 31.58 17.6701V17.5784Z" fill="black"/>
</svg>
