<svg width="20" height="20" viewBox="0 0 20 20" fill="none" xmlns="http://www.w3.org/2000/svg">
<path d="M16.4168 0.833496H3.5835C2.85415 0.833496 2.15468 1.12323 1.63895 1.63895C1.12323 2.15468 0.833496 2.85415 0.833496 3.5835V16.4168C0.833496 17.1462 1.12323 17.8456 1.63895 18.3614C2.15468 18.8771 2.85415 19.1668 3.5835 19.1668H16.4168C17.1462 19.1668 17.8456 18.8771 18.3614 18.3614C18.8771 17.8456 19.1668 17.1462 19.1668 16.4168V3.5835C19.1668 2.85415 18.8771 2.15468 18.3614 1.63895C17.8456 1.12323 17.1462 0.833496 16.4168 0.833496ZM17.3335 16.4168C17.3335 16.6599 17.2369 16.8931 17.065 17.065C16.8931 17.2369 16.6599 17.3335 16.4168 17.3335H3.5835C3.34038 17.3335 3.10722 17.2369 2.93532 17.065C2.76341 16.8931 2.66683 16.6599 2.66683 16.4168V3.5835C2.66683 3.34038 2.76341 3.10722 2.93532 2.93532C3.10722 2.76341 3.34038 2.66683 3.5835 2.66683H16.4168C16.6599 2.66683 16.8931 2.76341 17.065 2.93532C17.2369 3.10722 17.3335 3.34038 17.3335 3.5835V16.4168ZM10.0002 6.3335C9.51393 6.3335 9.04762 6.52665 8.7038 6.87047C8.35998 7.21428 8.16683 7.6806 8.16683 8.16683C8.16876 8.48677 8.25439 8.80064 8.4152 9.07723C8.57601 9.35383 8.80641 9.58353 9.0835 9.7435V12.7502C9.0835 12.9933 9.18007 13.2264 9.35198 13.3983C9.52389 13.5703 9.75705 13.6668 10.0002 13.6668C10.2433 13.6668 10.4764 13.5703 10.6483 13.3983C10.8203 13.2264 10.9168 12.9933 10.9168 12.7502V9.7435C11.1939 9.58353 11.4243 9.35383 11.5851 9.07723C11.7459 8.80064 11.8316 8.48677 11.8335 8.16683C11.8335 7.6806 11.6403 7.21428 11.2965 6.87047C10.9527 6.52665 10.4864 6.3335 10.0002 6.3335Z" fill="black"/>
</svg>
