<svg width="28" height="36" viewBox="0 0 28 36" fill="none" xmlns="http://www.w3.org/2000/svg">
<path d="M26.25 9.25H21V7.5C21 5.64348 20.2625 3.86301 18.9497 2.55025C17.637 1.2375 15.8565 0.5 14 0.5C12.1435 0.5 10.363 1.2375 9.05025 2.55025C7.7375 3.86301 7 5.64348 7 7.5V9.25H1.75C1.28587 9.25 0.840752 9.43437 0.512563 9.76256C0.184375 10.0908 0 10.5359 0 11V30.25C0 31.6424 0.553124 32.9777 1.53769 33.9623C2.52226 34.9469 3.85761 35.5 5.25 35.5H22.75C24.1424 35.5 25.4777 34.9469 26.4623 33.9623C27.4469 32.9777 28 31.6424 28 30.25V11C28 10.5359 27.8156 10.0908 27.4874 9.76256C27.1592 9.43437 26.7141 9.25 26.25 9.25ZM10.5 7.5C10.5 6.57174 10.8687 5.6815 11.5251 5.02513C12.1815 4.36875 13.0717 4 14 4C14.9283 4 15.8185 4.36875 16.4749 5.02513C17.1313 5.6815 17.5 6.57174 17.5 7.5V9.25H10.5V7.5ZM24.5 30.25C24.5 30.7141 24.3156 31.1592 23.9874 31.4874C23.6592 31.8156 23.2141 32 22.75 32H5.25C4.78587 32 4.34075 31.8156 4.01256 31.4874C3.68437 31.1592 3.5 30.7141 3.5 30.25V12.75H7V14.5C7 14.9641 7.18437 15.4092 7.51256 15.7374C7.84075 16.0656 8.28587 16.25 8.75 16.25C9.21413 16.25 9.65925 16.0656 9.98744 15.7374C10.3156 15.4092 10.5 14.9641 10.5 14.5V12.75H17.5V14.5C17.5 14.9641 17.6844 15.4092 18.0126 15.7374C18.3408 16.0656 18.7859 16.25 19.25 16.25C19.7141 16.25 20.1592 16.0656 20.4874 15.7374C20.8156 15.4092 21 14.9641 21 14.5V12.75H24.5V30.25Z" fill="black"/>
</svg>
