<svg width="32" height="36" viewBox="0 0 32 36" fill="none" xmlns="http://www.w3.org/2000/svg">
<path d="M30.315 14.8325C29.0562 14.6047 27.7792 14.4934 26.5 14.5C25.765 14.5 25.0475 14.5 24.33 14.64C23.4367 13.448 22.2966 12.4631 20.9875 11.7525C22.1119 10.5244 22.7362 8.92009 22.7375 7.255C22.7375 5.46346 22.0258 3.7453 20.759 2.47849C19.4922 1.21169 17.774 0.5 15.9825 0.5C14.191 0.5 12.4728 1.21169 11.206 2.47849C9.93917 3.7453 9.22749 5.46346 9.22749 7.255C9.22877 8.92009 9.85303 10.5244 10.9775 11.7525C9.67618 12.4668 8.53785 13.4442 7.63499 14.6225C6.95249 14.5 6.23499 14.5 5.49999 14.5C4.21973 14.505 2.94266 14.628 1.68499 14.8675C1.27731 14.942 0.909322 15.1589 0.646537 15.4793C0.383753 15.7998 0.24323 16.2031 0.249989 16.6175V31.055C0.249571 31.3121 0.305805 31.5661 0.414692 31.799C0.523579 32.0319 0.682444 32.238 0.879989 32.4025C1.07629 32.568 1.30661 32.6883 1.5546 32.7548C1.8026 32.8214 2.0622 32.8325 2.31499 32.7875C3.36221 32.5594 4.42859 32.4305 5.49999 32.4025C8.8899 32.3988 12.2063 33.3907 15.0375 35.255V35.255L15.265 35.3425C15.4971 35.4432 15.747 35.4968 16 35.5C16.167 35.4979 16.3326 35.4684 16.49 35.4125H16.6125L16.84 35.325C19.6981 33.4128 23.0612 32.3954 26.5 32.4025C27.5692 32.4075 28.6355 32.5129 29.685 32.7175C29.9378 32.7625 30.1974 32.7514 30.4454 32.6848C30.6934 32.6183 30.9237 32.498 31.12 32.3325C31.3175 32.168 31.4764 31.9619 31.5853 31.729C31.6942 31.4961 31.7504 31.2421 31.75 30.985V16.5475C31.7485 16.1391 31.6042 15.7441 31.3421 15.4309C31.0801 15.1177 30.7167 14.906 30.315 14.8325V14.8325ZM16 4C16.8198 4.06023 17.5864 4.42839 18.1459 5.03055C18.7055 5.6327 19.0165 6.42426 19.0165 7.24625C19.0165 8.06824 18.7055 8.8598 18.1459 9.46195C17.5864 10.0641 16.8198 10.4323 16 10.4925V10.4925C15.1802 10.4323 14.4136 10.0641 13.854 9.46195C13.2945 8.8598 12.9835 8.06824 12.9835 7.24625C12.9835 6.42426 13.2945 5.6327 13.854 5.03055C14.4136 4.42839 15.1802 4.06023 16 4V4ZM14.25 30.8275C11.5072 29.5597 8.52165 28.9029 5.49999 28.9025C4.92249 28.9025 4.34499 28.9025 3.74999 28.99V18C5.21747 17.8358 6.70017 17.8653 8.15999 18.0875H8.35249C10.4378 18.4707 12.4361 19.2297 14.25 20.3275V30.8275ZM16 17.3C15.2218 16.8511 14.4151 16.4536 13.585 16.11H13.48C12.9025 15.8825 12.325 15.655 11.73 15.48C12.945 14.5129 14.4472 13.9773 16 13.9575V13.9575C17.5487 13.9673 19.0504 14.4905 20.27 15.445C18.7844 15.9088 17.3529 16.5307 16 17.3V17.3ZM28.25 28.99C24.6566 28.629 21.032 29.2331 17.75 30.74V20.24C19.5672 19.1704 21.5667 18.4465 23.6475 18.105H23.9975C25.4045 17.8859 26.8339 17.8506 28.25 18V28.99Z" fill="black"/>
</svg>
