<svg width="36" height="32" viewBox="0 0 36 32" fill="none" xmlns="http://www.w3.org/2000/svg">
<path d="M26.75 14.25H25C24.5359 14.25 24.0908 14.4344 23.7626 14.7626C23.4344 15.0908 23.25 15.5359 23.25 16C23.25 16.4641 23.4344 16.9092 23.7626 17.2374C24.0908 17.5656 24.5359 17.75 25 17.75H26.75C27.2141 17.75 27.6593 17.5656 27.9874 17.2374C28.3156 16.9092 28.5 16.4641 28.5 16C28.5 15.5359 28.3156 15.0908 27.9874 14.7626C27.6593 14.4344 27.2141 14.25 26.75 14.25ZM26.75 21.25H25C24.5359 21.25 24.0908 21.4344 23.7626 21.7626C23.4344 22.0908 23.25 22.5359 23.25 23C23.25 23.4641 23.4344 23.9093 23.7626 24.2374C24.0908 24.5656 24.5359 24.75 25 24.75H26.75C27.2141 24.75 27.6593 24.5656 27.9874 24.2374C28.3156 23.9093 28.5 23.4641 28.5 23C28.5 22.5359 28.3156 22.0908 27.9874 21.7626C27.6593 21.4344 27.2141 21.25 26.75 21.25ZM16.25 10.75H26.75C27.2141 10.75 27.6593 10.5656 27.9874 10.2374C28.3156 9.90925 28.5 9.46413 28.5 9C28.5 8.53587 28.3156 8.09075 27.9874 7.76256C27.6593 7.43437 27.2141 7.25 26.75 7.25H16.25C15.7859 7.25 15.3408 7.43437 15.0126 7.76256C14.6844 8.09075 14.5 8.53587 14.5 9C14.5 9.46413 14.6844 9.90925 15.0126 10.2374C15.3408 10.5656 15.7859 10.75 16.25 10.75ZM33.75 0.25H9.25C8.78587 0.25 8.34075 0.434374 8.01256 0.762563C7.68437 1.09075 7.5 1.53587 7.5 2V7.25H2.25C1.78587 7.25 1.34075 7.43437 1.01256 7.76256C0.684374 8.09075 0.5 8.53587 0.5 9V26.5C0.5 27.8924 1.05312 29.2277 2.03769 30.2123C3.02226 31.1969 4.35761 31.75 5.75 31.75H28.5C30.3565 31.75 32.137 31.0125 33.4497 29.6997C34.7625 28.387 35.5 26.6065 35.5 24.75V2C35.5 1.53587 35.3156 1.09075 34.9874 0.762563C34.6592 0.434374 34.2141 0.25 33.75 0.25ZM7.5 26.5C7.5 26.9641 7.31563 27.4093 6.98744 27.7374C6.65925 28.0656 6.21413 28.25 5.75 28.25C5.28587 28.25 4.84075 28.0656 4.51256 27.7374C4.18437 27.4093 4 26.9641 4 26.5V10.75H7.5V26.5ZM32 24.75C32 25.6783 31.6313 26.5685 30.9749 27.2249C30.3185 27.8813 29.4283 28.25 28.5 28.25H10.685C10.8887 27.6888 10.9953 27.097 11 26.5V3.75H32V24.75ZM16.25 17.75H18C18.4641 17.75 18.9092 17.5656 19.2374 17.2374C19.5656 16.9092 19.75 16.4641 19.75 16C19.75 15.5359 19.5656 15.0908 19.2374 14.7626C18.9092 14.4344 18.4641 14.25 18 14.25H16.25C15.7859 14.25 15.3408 14.4344 15.0126 14.7626C14.6844 15.0908 14.5 15.5359 14.5 16C14.5 16.4641 14.6844 16.9092 15.0126 17.2374C15.3408 17.5656 15.7859 17.75 16.25 17.75ZM16.25 24.75H18C18.4641 24.75 18.9092 24.5656 19.2374 24.2374C19.5656 23.9093 19.75 23.4641 19.75 23C19.75 22.5359 19.5656 22.0908 19.2374 21.7626C18.9092 21.4344 18.4641 21.25 18 21.25H16.25C15.7859 21.25 15.3408 21.4344 15.0126 21.7626C14.6844 22.0908 14.5 22.5359 14.5 23C14.5 23.4641 14.6844 23.9093 15.0126 24.2374C15.3408 24.5656 15.7859 24.75 16.25 24.75Z" fill="black"/>
</svg>
