<svg width="36" height="36" viewBox="0 0 36 36" fill="none" xmlns="http://www.w3.org/2000/svg">
<path d="M24.4926 19.2426C26.2083 17.8927 27.4606 16.0417 28.0753 13.947C28.69 11.8523 28.6365 9.61806 27.9222 7.55516C27.208 5.49227 25.8686 3.70328 24.0902 2.43709C22.3119 1.1709 20.1832 0.490479 18.0001 0.490479C15.8171 0.490479 13.6883 1.1709 11.91 2.43709C10.1317 3.70328 8.79222 5.49227 8.07799 7.55516C7.36376 9.61806 7.31026 11.8523 7.92495 13.947C8.53963 16.0417 9.79193 17.8927 11.5076 19.2426C8.56775 20.4204 6.00262 22.374 4.08568 24.8949C2.16874 27.4159 0.971851 30.4099 0.622616 33.5576C0.597337 33.7874 0.61757 34.02 0.682161 34.2419C0.746751 34.4639 0.854434 34.671 0.999061 34.8514C1.29115 35.2157 1.71599 35.449 2.18012 35.5001C2.64425 35.5511 3.10965 35.4157 3.47394 35.1236C3.83822 34.8316 4.07156 34.4067 4.12262 33.9426C4.50689 30.5217 6.13807 27.3623 8.7045 25.068C11.2709 22.7737 14.5927 21.5054 18.0351 21.5054C21.4775 21.5054 24.7993 22.7737 27.3657 25.068C29.9322 27.3623 31.5633 30.5217 31.9476 33.9426C31.9952 34.3726 32.2004 34.7697 32.5236 35.0574C32.8467 35.345 33.265 35.5027 33.6976 35.5001H33.8901C34.3489 35.4473 34.7681 35.2154 35.0566 34.8548C35.3451 34.4942 35.4793 34.0342 35.4301 33.5751C35.0792 30.4185 33.8759 27.4168 31.9491 24.892C30.0223 22.3671 27.4447 20.4142 24.4926 19.2426ZM18.0001 18.0001C16.6156 18.0001 15.2623 17.5896 14.1111 16.8204C12.96 16.0512 12.0628 14.958 11.533 13.6789C11.0031 12.3998 10.8645 10.9923 11.1346 9.63446C11.4047 8.2766 12.0714 7.02932 13.0504 6.05035C14.0293 5.07138 15.2766 4.4047 16.6345 4.1346C17.9924 3.8645 19.3998 4.00313 20.6789 4.53294C21.958 5.06275 23.0512 5.95996 23.8204 7.1111C24.5896 8.26225 25.0001 9.61563 25.0001 11.0001C25.0001 12.8566 24.2626 14.6371 22.9499 15.9498C21.6371 17.2626 19.8566 18.0001 18.0001 18.0001Z" fill="black"/>
</svg>
