<svg width="46" height="45" viewBox="0 0 46 45" fill="none" xmlns="http://www.w3.org/2000/svg">
<path d="M23 0C10.8432 0 0.959961 9.8832 0.959961 22.04C0.959961 34.1968 10.8432 44.08 23 44.08C35.1568 44.08 45.04 34.1968 45.04 22.04C45.04 9.8832 35.1568 0 23 0ZM23 10.5792C26.7583 10.5792 29.7745 13.6417 29.7745 17.3538C29.7745 21.1121 26.7121 24.1283 23 24.1283C19.2416 24.1283 16.2254 21.0659 16.2254 17.3538C16.2254 13.6417 19.2416 10.5792 23 10.5792ZM23 26.2624C28.1967 26.2624 32.6976 29.8816 34.7392 35.3104C31.6304 38.0946 27.5009 39.765 23 39.765C18.4991 39.765 14.416 38.0483 11.2608 35.3104C13.3487 29.8816 17.8032 26.2624 23 26.2624Z" fill="#9C9C9C"/>
</svg>
